<?xml version="1.0" encoding="utf-8"?>
<!-- Generator: Adobe Illustrator 23.0.1, SVG Export Plug-In . SVG Version: 6.00 Build 0)  -->
<svg version="1.1" id="goalpost" xmlns="http://www.w3.org/2000/svg" xmlns:xlink="http://www.w3.org/1999/xlink" x="0px" y="0px"
	 viewBox="0 0 346.66 158.81" style="enable-background:new 0 0 346.66 158.81;" xml:space="preserve">
<style type="text/css">
	.st0{fill:#F2AEF4;}

	#goalpost:hover .st0 { fill: blue; }

</style>
<g id="post_outline">
	<g id="post_steps_1_">
		<g transform="translate(0.000000,640.000000) scale(0.100000,-0.100000)">
			<path d="M1795.63,6300.31c-903.77-129.19-1315.98-187.68-1512.61-214.23c-32.77-4.33-59.85-6.77-60.4-5.69
				c-0.81,2.7-1.36,2.7-47.66-6.5c-28.44-5.42-33.31-7.32-41.43-15.16c-5.42-5.15-10.56-14.08-13-22.48
				c-2.17-7.32-10.83-81.25-19.22-163.86c-16.25-163.59-23.57-235.36-70.15-694.15C14.08,5010.33,0,4869.77,0,4865.97
				c0-6.23,0.81-6.77,7.32-5.15c4.06,0.81,15.44,2.17,25.18,2.71c9.75,0.54,52.27,8.39,94.8,17.61
				c42.52,8.93,111.31,23.57,153.02,32.5s122.14,26,178.75,37.92s137.04,28.98,178.75,37.92c178.75,37.92,284.91,60.4,333.13,71.23
				l51.46,11.16h171.98c94.53-0.86,254.85-2.21,356.14-3.84c101.29-1.36,288.44-3.79,415.73-5.42
				c127.3-1.63,241.85-3.52,254.31-4.33l22.48-1.63l-1.63-12.46c-0.81-7.04-5.69-54.71-11.1-106.16
				c-5.15-51.46-10.29-100.47-11.1-108.88l-1.9-17.29h9.48c5.42,1.58,265.42,55.74,577.95,122.1
				c312.81,66.36,589.6,125.13,615.34,130.54l46.45,9.75v41.71c0.14,34.94-0.4,41.43-3.92,41.43s-4.06,14.62-4.06,116.19
				c0,115.65,0,116.19-6.77,139.48c-29.8,102.65-195,410.85-350.18,652.98c-69.6,108.6-120.79,178.48-154.64,210.71
				c-18.15,17.34-27.08,23.29-54.98,36.83c-59.31,29.25-129.46,49.02-239.15,67.71c-60.94,10.29-128.1,18.95-147.61,18.69
				C2497.08,6399.97,2177.77,6355.02,1795.63,6300.31z M2545.19,6280.22c194.58-28.57,308.04-54.17,332.02-74.38
				c53.9-46.35,251.71-369.75,431.47-705.82c51.74-96.21,58.75-112.65,62.52-143.64c2.96-26.41,4.85-203.47,1.89-206.44
				c-0.81-0.81-52.01-6.47-114-12.4l-112.38-5.67h-126.12h-126.4l1.35,30.74c0.81,19.4,2.16,36.38,3.23,37.46
				c0.81,1.08,18.86,2.7,40.16,3.77l38.27,1.89l-1.35-36.11c-1.08-23.72-0.54-34.23,1.08-30.72c1.35,2.96,2.7,19.13,2.7,35.84
				c0.27,21.83,1.35,30.72,3.77,31.53c1.62,0.54,19.94,1.62,40.43,2.16l32.71,1.35v-33.96c5.02-28.03,5.29-31.53,6.9-19.4
				c1.35,8.09,3.1,34.23,3.1,34.23l0.26,17.94l27.77,1.55c15.17,0.77,34.71,2.06,43.45,2.57l15.68,1.03l-1.03-31.37
				c-0.52-22.63-0.26-28.29,1.55-20.83c1.29,5.66,2.32,19.8,2.32,31.63l0.28,18.71h11.82c6.6,0,23.64,0.81,37.39,1.89l25.56,1.62
				l-1.92-30.72c-1.09-16.98-1.09-29.91,0-28.84c1.1,1.08,3.02,14.01,4.12,29.11c1.09,15.09,2.75,28.03,3.57,28.57
				c0.83,0.81,20.89,2.43,44.53,3.77c23.92,1.35,43.98,3.23,45.08,4.31c0.83,1.08-18.96,0.81-44.25-0.27l-46.18-1.89v11.43
				c0,0,9.52,104.3,9.79,106.72c0.27,0.27,16.44,0.54,36.11,0.54c20.75,0,37.19,1.35,39.62,2.96c2.96,2.16-7.28,2.43-36.11,1.35
				l-40.16-1.35l1.62,18.06c0.81,9.97,3.23,42.04,4.85,71.15l3.5,51.59H3266c5.66,1.77,10.24,3.12,10.24,4.46
				c0,1.62-9.7,5.54-9.7,5.54h-9.29l0.54,13.32c0.81,22.91-1.89,22.91-4.31,0.27l-1.89-13.59h-41.44h-36.79l1.53,17.26
				c2.79,32.48,7.11,145.13,5.58,148.94c-1.02,3.29-8.37,3.8-46.18,3.8h-48.98l1.62,44.05c1.08,24.05,2.43,53.78,3.25,66.22
				c1.62,21.08,1.89,22.17,8.11,22.17c3.52,0,6.48,1.35,6.48,2.71c0,1.62-2.98,2.71-6.75,2.71c-6.21,0-6.75,1.08-7.02,12.98
				c-0.27,13.78-1.08,12.98-3.79-2.71l-1.62-10.27l-37.03,1.62c-20.27,1.08-37.3,1.89-37.57,2.16c-0.27,0.27,1.08,33.24,2.98,73.24
				c2.16,40.27,2.71,74.05,1.62,75.4c-1.35,1.35-20.27,4.06-42.16,6.21c-21.89,1.89-40.27,4.06-40.54,4.33
				c-0.27,0.27,0.81,26.48,2.16,58.11c1.62,32.7,1.89,58.65,0.54,59.99c-1.35,1.08-19.46,4.06-40.27,6.48
				c-56.49,6.75-50.53,2.71-49.73,34.05c0.54,14.86,0,27.57-0.81,28.38c-0.81,0.81-2.16-11.08-3.25-26.21
				c-1.08-15.13-2.16-28.11-2.71-28.38c-0.81-0.81-37.3,3.25-55.4,6.21l-8.92,1.35l1.89,24.59c1.08,14.86,0.81,23.78-0.81,22.71
				c-1.35-0.81-3.25-11.35-4.06-23.24c-0.81-12.16-1.89-22.44-2.44-22.97c-1.08-1.08-77.83,8.38-79.18,10
				c-0.81,0.54,0,14.32,1.35,30.54c2.44,26.75,2.16,34.05-1.08,30.81c-0.81-0.54-2.16-14.86-3.25-31.9l-1.89-30.54l-7.02,1.35
				c-3.79,0.81-20.81,2.98-37.57,4.86l-30.27,3.25l1.08,8.38c3.25,20.27,4.59,56.22,2.16,54.59c-1.35-0.81-3.52-14.86-4.59-31.35
				c-2.16-34.59,2.98-31.9-45.67-25.4c-17.57,2.16-32.7,3.52-33.51,2.71c-2.43-2.44,4.86-4.06,41.08-8.11
				c19.19-2.44,35.13-4.6,35.4-4.86c0.81-1.89-9.19-121.89-10.54-123.24c-0.81-0.81-20.54,0.27-43.51,2.44
				c-22.97,2.16-41.89,2.98-41.89,2.16c0-2.16,11.62-3.79,55.4-8.11c16.21-1.35,30-2.98,30.27-3.25
				c0.54-0.54-11.62-160.53-12.44-163.51c-0.27-0.54-11.62-0.54-25.67,0c-33.78,1.08-35.67-1.89-2.71-4.06
				c14.59-1.08,26.75-2.44,27.3-2.98c0.54-0.54-1.35-33.51-4.33-73.24c-3.25-39.46-5.67-74.32-5.67-77.3
				c0-4.86-2.16-5.13-43.24-5.13c-26.21,0-43.24-1.08-43.24-2.71c0-1.62,17.3-2.98,42.7-3.25l42.43-0.81l-7.29-94.59
				c-4.06-51.89-7.3-95.95-7.3-97.56c-0.27-1.89-13.25-4.06-35.94-5.67l-35.94-2.71l37.01-2.69h35.54l-1.62-8.99
				c-0.81-8.62-3.23-39.89-5.66-69.53c-2.16-29.38-4.58-54.17-5.12-54.71s-19.4-1.89-41.5-2.7c-22.37-0.81-40.69-2.43-40.69-3.5
				c0-1.35,18.86-1.62,42.04-0.54l42.31,1.62l-1.62-9.16c-0.81-5.12-3.23-31.8-4.85-59.83c-1.89-27.76-4.31-52.01-5.66-53.9
				c-1.35-2.16-10.78-3.5-27.76-4.04c-14.28-0.54-25.6-2.16-25.6-3.77c0-1.62,9.97-1.89,27.49-0.54l27.22,1.89l-1.62-16.98
				c-1.08-9.43-1.89-22.37,2.12-28.57v-6.75h-56.55h-53.45v2.44c0.9,4.04,1.98,23.18,3.59,42.31c1.35,19.4,6.2,89.74,10.78,156.31
				c4.31,66.84,12.94,193.23,18.86,281.09c26.68,396.17,32.61,484.02,37.73,561.1c5.66,85.16,7.82,110.5,9.43,110.5
				C2507.46,6285.61,2524.7,6283.19,2545.19,6280.22z M2364.59,6255.4c-0.81-5.66-8.62-83.54-17.52-173.29
				c-20.75-213.71-30.45-310.2-43.12-439.29c-5.66-58.48-14.28-144.72-18.86-191.35c-22.91-234.2-29.65-301.84-31.26-315.05
				l-1.89-14.55l-153.88,1.62c-84.62,1.08-358.97,1.89-609.88,1.89c-359.51,0-456.53,0.81-458.15,3.5
				c-1.08,1.62-2.7,49.86-3.5,106.99l-1.62,103.76l-8.35,21.56c-15.9,40.69-27.49,66.03-59.83,129.9
				c-102.14,202.4-262.49,463.81-322.05,525.26c-12.67,13.21-13.48,14.82-8.62,15.9c3.23,0.81,137.18,18.87,298.07,40.43
				c402.63,53.63,871.3,116.42,1176.37,157.66c140.95,18.87,258.18,34.5,260.88,34.77
				C2365.13,6265.37,2365.67,6263.75,2364.59,6255.4z M2655.33,6114.93l31.2-3.2v-12.27c-0.27-18.93-7.2-106.95-8.8-108.55
				c-0.53-0.8-17.07,0.27-36.27,1.87l-34.93,3.46v9.33c0,5.33,1.87,30.67,4,56.27c2.13,25.6,4,49.34,4,52.81
				c0,4.53,1.34,5.87,4.8,4.8C2621.72,6118.93,2637.99,6116.79,2655.33,6114.93z M2731.68,6105.86l38.54-4.58l-1.62-12.13
				c-0.81-7.01-2.96-32.61-4.58-57.4c-1.89-24.79-4.04-46.35-5.12-47.7c-1.62-2.96-73.57,2.43-76.81,5.66
				c-2.96,2.69,6.2,120.74,9.16,120.74C2692.06,6110.44,2710.39,6108.55,2731.68,6105.86z M2809.57,6096.69
				c14.28-1.89,27.22-4.04,28.3-5.12c1.62-1.35-2.7-116.42-4.58-117.5c-1.08-0.81-66.57,6.47-67.64,7.55
				c-0.81,0.54,0.81,27.49,3.23,59.56c4.31,53.63,5.12,58.48,9.7,58.48C2781.27,6099.66,2795.28,6098.31,2809.57,6096.69z
				 M2883.68,6087.53c18.06-2.16,36.65-4.58,40.96-5.39l8.09-1.35l-2.43-57.13c-1.08-31.53-2.43-57.67-2.7-57.94
				c-0.54-0.54-83.55,7.28-86.51,8.35c-2.7,0.81-0.27,97.56,2.96,111.57C2845.41,6092.65,2842.98,6092.65,2883.68,6087.53z
				 M493.75,5991.59c39.35-3.23,72.77-8.62,85.43-14.01c15.36-6.47,40.96-42.85,102.14-145.26
				c59.02-98.64,123.43-213.17,194.31-344.42c60.1-111.57,80.31-153.62,83.01-172.75c4.04-27.76,6.2-109.42,4.04-147.96l-1.89-36.38
				l-135.02-12.67c-74.38-7.01-253.33-23.99-397.24-37.73c-144.18-13.48-262.49-24.25-263.03-23.45
				c-0.54,0.54,2.43,50.94,6.47,111.57c4.04,60.91,9.97,146.88,12.94,191.35c3.23,44.47,9.97,144.45,15.09,222.34
				c5.39,77.89,12.67,185.15,16.17,238.51c3.77,53.36,7.55,111.3,8.62,128.82c1.08,19.94,2.7,32.61,4.58,33.15
				c1.89,0.81,23.72,4.31,48.78,7.82c42.04,5.93,51.74,6.47,114.54,5.12C430.42,5995.09,475.96,5993.2,493.75,5991.59z
				 M2650.56,5986.74c12.4-1.35,22.91-2.96,23.72-3.77c1.08-1.08-9.43-159.27-10.78-159.81c-1.89-0.81-71.96,3.5-73.03,4.85
				c-1.35,1.35,8.89,153.88,10.78,160.35c0.81,2.16,5.39,2.96,14.01,1.89C2622.26,5989.43,2638.16,5987.81,2650.56,5986.74z
				 M2735.18,5979.19l24.52-1.62l-1.62-16.44c-0.81-9.16-3.77-44.74-6.2-79.23l-4.85-62.79l-38,1.89
				c-20.75,0.81-38.27,2.16-39.08,2.43c-1.08,0.54,9.16,154.69,10.51,160.08c0.27,0.54,7.01,0.27,15.09-0.81
				C2703.92,5981.89,2721.71,5980.27,2735.18,5979.19z M2819,5971.11l15.9-1.62l-1.62-15.09c-0.81-8.35-2.16-30.72-2.96-50.13
				c-0.81-19.13-2.16-46.89-2.96-61.72l-1.62-26.68l-36.38,1.35c-19.67,0.81-36.65,1.89-37.19,2.69
				c-1.35,1.08,8.62,131.52,11.05,147.42l1.35,8.89l19.4-1.62C2794.74,5973.53,2810.37,5972.18,2819,5971.11z M2896.08,5963.83
				l30.72-2.96l-0.54-24.25c-0.27-13.21-1.62-44.74-2.96-70.07c-1.35-25.06-2.7-47.97-2.7-50.67c0-4.58-2.69-4.85-42.31-3.23
				c-23.45,1.08-43.93,2.16-45.28,2.69c-1.89,0.27-2.16,11.86-1.08,32.61c1.08,17.79,2.7,52.28,3.77,76.81l1.89,44.74l14.01-1.35
				C2859.15,5967.6,2879.1,5965.45,2896.08,5963.83z M2995.52,5954.94l16.71-1.62l-0.27-12.4c-0.27-6.74-1.62-39.62-3.23-72.77
				l-3.23-60.37l-24.26,0.54c-13.21,0.27-31.53,1.08-40.16,2.16l-15.9,1.62l1.89,42.04c0.81,23.18,2.43,56.33,3.5,74.11l1.62,31.8
				l23.18-1.62C2968.03,5957.36,2986.09,5956.01,2995.52,5954.94z M2666.23,5824.41c0.27,0-1.89-29.91-4.58-66.3
				c-2.69-36.38-4.85-70.61-5.12-76v-10.24h-39.08h-38.81l1.08,7.55c0.54,4.04,2.96,35.3,5.39,69.26
				c2.43,34.23,4.85,66.03,5.66,70.88l1.35,9.16l36.92-1.89C2649.25,5825.76,2666.23,5824.68,2666.23,5824.41z M2711.47,5822.79
				c14.82,0,28.84-1.08,30.99-2.43c2.96-1.89,2.69-13.48-2.16-71.96c-3.23-38.54-5.66-71.42-5.66-73.03c0-2.7-9.7-3.5-39.08-3.5
				h-39.35l1.62,12.94c1.89,16.44,9.43,122.89,9.43,133.4c0,7.55,0.54,7.82,8.35,6.2
				C2680.21,5823.6,2696.38,5822.79,2711.47,5822.79z M2825.47,5816.59c0.27-0.54-6.47-140.95-7.28-143.91
				c0-0.54-18.06-0.81-40.43-0.81h-40.16l1.08,7.55c0.81,4.04,2.96,32.07,5.39,62.52c2.16,30.45,4.85,60.64,5.66,67.11l1.62,11.86
				l36.65-1.89C2808.22,5817.94,2825.2,5816.86,2825.47,5816.59z M2909.55,5813.09l11.86-1.62l-1.62-23.18
				c-1.08-12.94-2.43-44.47-3.5-69.8l-1.89-46.62h-45.81h-45.82l1.62,30.45c1.08,16.44,2.7,49.32,3.5,72.77l1.89,42.31l33.96-1.35
				C2882.33,5815.24,2903.08,5813.89,2909.55,5813.09z M2978.27,5810.12l26.68-1.62l-1.89-47.43c-0.81-26.14-2.43-56.86-3.23-68.18
				l-1.89-21.02h-40.16h-40.43l1.62,12.94c0.81,7.01,2.16,36.38,2.96,65.22c1.08,28.84,2.43,54.71,2.96,57.4
				C2926.53,5812.55,2934.61,5813.09,2978.27,5810.12z M3057.31,5801.87h26.78l-1.56-52.52c-1.04-29.11-2.34-58.24-3.12-65
				l-1.56-12.48h-36.4h-36.66l1.82,42.38c0.78,23.14,2.34,53.04,3.38,66.55l1.56,24.18l9.36-1.56
				C3026.11,5802.65,3042.48,5801.87,3057.31,5801.87z M2655.2,5647.85c-0.27-21.83-11.86-176.79-13.21-178.14
				c-0.81-0.81-18.06-2.16-38.27-3.23l-37.19-1.89v7.55c0,4.31,2.96,46.62,6.74,94.06c3.77,47.43,6.74,88.4,6.74,91.09
				c0,4.04,3.5,4.58,37.73,4.58h37.73L2655.2,5647.85z M2732.76,5654.6c-0.27-4.31-3.77-46.89-7.82-95.13
				c-3.77-48.24-7.28-87.86-7.55-88.13c-1.89-1.89-74.38-3.77-74.38-1.89c0,1.35,2.96,43.66,6.74,94.06s6.74,93.25,6.74,95.13
				c0,2.43,9.43,3.23,38.54,3.23h38.81L2732.76,5654.6z M2817.38,5634.4c-1.08-15.36-3.23-57.4-4.85-93.79
				c-1.62-36.38-3.23-66.3-3.5-66.3c0-0.27-19.67-1.35-43.66-2.43l-43.12-1.89l0.81,9.16c1.89,19.67,14.28,173.56,14.28,178.14
				c0,4.04,3.77,4.58,40.69,4.58h40.96L2817.38,5634.4z M2913.05,5642.48c-0.54-10.78-2.43-52.28-4.04-92.44l-3.23-72.77
				l-45.55-2.16c-25.06-1.08-45.82-1.89-46.08-1.35c-0.54,0.81,8.62,185.42,9.16,187.57c0.27,0.27,20.48,0.54,45.55,0.54h45.01
				L2913.05,5642.48z M2994.31,5658.64c0-1.89-1.82-37.46-3.89-78.96c-2.07-41.5-3.89-81.12-3.89-87.86v-12.4l-38.11-1.35
				c-21.26-0.81-38.63-1.08-39.14-0.81c-0.26,0.27,1.04,38.54,3.37,85.16c2.08,46.62,3.89,87.86,3.89,92.17v7.28h38.89
				C2984.72,5661.88,2994.31,5661.07,2994.31,5658.64z M3073.61,5612.82c-1.08-27.22-2.69-67.38-3.77-89.74l-1.62-40.42l-37.73-1.62
				c-20.75-1.08-38.54-1.08-39.35,0c-0.81,0.81,0,30.72,1.89,66.3c1.89,35.57,3.5,76,3.5,89.74l0.27,24.79h39.35h39.35
				L3073.61,5612.82z M3177.43,5637.08c-0.81-13.74-2.69-53.63-4.58-88.4l-2.96-63.33l-45.82-1.62
				c-25.06-0.81-46.08-1.35-46.35-1.08c-0.54,0.27,6.47,175.18,7.28,178.68c0,0.27,21.02,0.54,46.89,0.54h46.89L3177.43,5637.08z
				 M3250.74,5463.1c-0.81-10.78-3.23-42.31-5.12-70.34c-1.89-27.76-4.04-50.94-4.58-51.47c-0.54-0.54-17.25-1.62-37.19-2.43
				l-36.11-1.62l1.89,43.66c0.81,23.99,2.43,56.06,3.5,71.15l1.62,27.49l23.18,1.08c12.67,0.27,30.18,1.08,38.81,1.35l15.63,0.54
				L3250.74,5463.1z M3167.46,5438.35c-0.81-25.6-2.43-57.94-3.5-71.42l-1.62-25.06h-23.18c-12.67,0-33.42-0.81-45.81-1.89
				l-22.64-1.62l1.89,34.77c0.81,19.13,2.43,51.47,3.23,71.69l1.89,36.92l32.61,1.08c17.79,0.27,38.54,1.08,45.81,1.35l13.21,0.54
				L3167.46,5438.35z M3066.26,5449.62c-0.27-37.19-3.77-112.11-5.39-113.46c-0.54-0.81-18.6-2.16-39.89-3.23l-38.81-1.89l1.62,34.5
				c1.08,19.13,2.7,51.47,3.5,71.69l1.89,36.92l31.26,1.08c17.25,0.27,34.5,1.08,38.81,1.35l7.28,0.54L3066.26,5449.62z
				 M2989.05,5455.01c-0.54-10.78-2.43-42.58-3.5-70.34c-1.35-28.03-2.96-51.21-3.5-51.47c-0.27-0.54-18.33-1.62-39.62-2.69
				l-38.81-1.89l1.89,46.62c0.81,25.6,2.43,57.67,3.23,71.42l1.89,24.79l33.96,1.08c18.6,0.27,36.65,1.08,39.89,1.35
				C2990.4,5474.42,2990.67,5473.88,2989.05,5455.01z M2904.43,5453.66c0-18.33-5.39-122.89-6.2-123.7
				c-0.27-0.27-21.02-1.35-46.08-2.43l-45.55-2.16l2.16,46.89c1.08,25.87,2.69,57.94,3.77,71.15l1.62,24.26l39.08,1.35
				c21.56,0.81,41.77,1.89,45.28,2.16C2904.16,5471.72,2904.43,5470.64,2904.43,5453.66z M2805.52,5393.15
				c-1.89-38.27-3.77-69.8-4.31-70.34c-0.54-0.27-21.29-1.62-46.08-2.69l-45.28-1.62l1.62,15.9c0.81,8.62,3.5,39.62,5.93,68.45
				c2.16,28.84,4.58,53.9,5.12,55.79c0.81,2.16,14.01,3.23,43.66,3.23l42.58,0.54L2805.52,5393.15z M2715.91,5449.66
				c-0.79-7.16-3.19-37.65-5.57-68.41l-4.51-55.68l-10.61-1.85c-5.83-1.06-22.27-1.85-36.59-1.85l-26.25-0.26l1.59,15.38
				c0.79,8.22,2.92,34.21,4.24,57.54c3.98,59.13,4.77,64.44,10.08,65.76c2.38,0.79,18.83,1.32,36.59,1.59l32.08,0.26
				L2715.91,5449.66z M2630.26,5442.85c-0.79-10.57-2.9-41.47-4.75-68.41l-3.43-49.13l-17.17-1.85c-9.51-0.79-26.68-1.59-37.77-1.59
				h-20.6v7.4c0,11.36,8.18,125.73,9.51,129.43c0.53,2.38,10.57,3.17,38.3,3.17h37.51L2630.26,5442.85z M3241.04,5328.35
				c-0.27-22.91-7.01-101.87-8.62-103.76c-2.43-2.16-67.38-5.93-69.26-3.77c-0.81,0.81-0.27,26.41,1.35,56.86l2.7,55.25l33.69,1.35
				c18.6,0.81,35.3,1.89,37.19,2.16S3241.31,5333.74,3241.04,5328.35z M3162.07,5308.35c-0.81-12.4-2.43-38.27-3.23-57.67
				l-1.62-35.3l-32.61-1.89c-17.79-0.81-38.27-1.62-45.55-1.62h-13.21l1.35,26.41c0.81,14.28,2.43,40.42,3.23,57.67l1.62,31.8
				l42.04,0.81c23.45,0.27,43.93,1.08,46.08,1.35C3163.15,5330.45,3163.42,5326.14,3162.07,5308.35z M3064.78,5272.29
				c-1.35-38.27-2.96-57.4-5.12-57.94c-1.62-0.54-19.67-1.62-40.43-2.43l-37.19-1.62l1.62,49.32c1.08,26.95,2.43,53.63,3.23,59.02
				l1.62,9.97l38,0.81c21.02,0.54,38.81,0.54,39.35,0.27C3066.4,5329.42,3065.86,5303.55,3064.78,5272.29z M2981.51,5297.65
				c-4.04-78.69-4.31-81.66-10.78-81.93c-2.96,0-20.75-1.08-39.08-1.89l-33.15-1.89l1.89,57.94c1.08,31.8,2.43,58.75,3.23,60.1
				c0.54,1.08,18.87,1.89,40.43,1.89h39.08L2981.51,5297.65z M2897.96,5297.62c-0.81-13.74-2.16-40.43-3.23-59.02l-1.62-34.23
				l-45.81-1.89c-25.06-1.08-45.82-1.62-46.35-1.08c-0.27,0.54,0.54,27.49,1.89,59.56l2.7,58.48l9.7,1.08
				c5.39,0.54,26.41,1.08,47.16,1.35l37.19,0.54L2897.96,5297.62z M2800.4,5292.24c-0.81-16.71-2.43-43.66-3.5-60.1l-1.62-29.65
				l-46.62-2.43c-25.6-1.08-47.16-1.62-47.7-1.35c-0.81,1.08,5.12,80.85,8.08,106.72l1.62,14.01l12.67,1.08
				c7.01,0.54,27.49,1.08,45.81,1.35l33.15,0.54L2800.4,5292.24z M2706.56,5300.05c-1.08-10.24-3.23-37.46-4.85-60.64l-3.23-42.31
				l-11.05-1.35c-6.2-0.81-22.37-1.89-35.84-2.43l-25.06-1.08v9.7c0,5.39,1.89,32.07,4.04,59.56c2.16,27.49,4.04,50.67,4.04,51.74
				c0,2.16,16.71,3.77,49.59,4.31l23.99,0.54L2706.56,5300.05z M2626.53,5306.79c0-10.78-7.82-113.46-8.89-114.27
				c-0.27-0.27-18.06-1.35-39.35-2.43l-38.81-1.89l1.62,16.98c1.08,9.43,3.23,37.46,4.85,62.25l3.23,45.01l11.05,1.08
				c6.2,0.54,23.45,1.08,38.81,1.35l27.49,0.54L2626.53,5306.79L2626.53,5306.79z M2888.42,5189.27
				c-1.08-10.24-1.89-27.22-1.89-37.73v-19.67h-47.43h-47.43l2.16,34.5c0.81,18.86,1.89,34.5,2.43,34.77
				c0.27,0.54,54.17,4.31,85.97,5.93l7.82,0.27L2888.42,5189.27z M2794.74,5175.79c-0.54-14.55-1.62-30.45-2.43-35.03l-1.35-8.89
				h-48.78h-48.51l1.62,14.28c0.81,7.55,2.16,22.1,3.23,32.34c1.62,15.9,2.43,18.06,7.55,18.33c2.96,0.27,19.13,1.35,35.3,2.43
				c16.44,0.81,35.3,1.89,42.04,2.16l12.4,0.54L2794.74,5175.79z M2692.87,5166.37c-1.08-16.71-2.43-31.26-3.23-32.34
				c-0.54-1.35-16.98-2.16-36.11-2.16h-35.03l1.62,27.76c1.08,15.09,2.16,28.84,2.7,30.72c1.08,2.96,8.62,3.77,57.67,5.66
				l14.28,0.54L2692.87,5166.37z M2617.41,5171.75c-0.81-12.4-2.16-26.41-2.96-30.99l-1.35-8.89h-38.81h-38.81l1.35,19.67
				c2.16,30.99,3.5,36.92,8.62,37.19c2.43,0.27,19.13,1.35,36.92,2.43c17.79,0.81,33.42,1.89,34.5,2.16
				C2618.22,5193.58,2618.49,5183.88,2617.41,5171.75z"/>
		</g>
	</g>
</g>
<rect id="box_in_post" x="104.2" y="35.72" transform="matrix(0.9918 -0.128 0.128 0.9918 -6.2603 20.9293)" class="st0" width="110.91" height="46.87"/>
</svg>
