<?xml version="1.0" encoding="utf-8"?>
<!-- Generator: Adobe Illustrator 23.0.1, SVG Export Plug-In . SVG Version: 6.00 Build 0)  -->
<svg version="1.1" id="soccerfans" xmlns="http://www.w3.org/2000/svg" xmlns:xlink="http://www.w3.org/1999/xlink" x="0px" y="0px"
	 viewBox="0 0 274.69 277.3" style="enable-background:new 0 0 274.69 277.3;" xml:space="preserve">
<style type="text/css">
	.st0{fill:#0000FF;}

	#soccerfans:hover .st0 { fill: orange; }

</style>
<g id="fans_outline">
	<g id="steps_1_">
		<path d="M59.58,225.7c0,9.49-7.76,17.26-17.26,17.26s-17.26-7.57-17.26-17.07c0-9.49,7.7-17.45,17.19-17.45
			C51.75,208.44,59.58,216.2,59.58,225.7z"/>
		<g>
			<path d="M63.64,252.17c-0.24-1.38-1.04-2.52-2.12-3.25c-1.07-0.9-2.46-1.45-3.97-1.45H26.83c-1.25,0-2.42,0.38-3.39,1.02
				c-1.48,0.63-2.62,1.98-2.92,3.68l-4.61,25.14h52.33L63.64,252.17z"/>
		</g>
		<path d="M0.21,198.97c-0.82-2.91,0.87-5.94,3.78-6.77l0,0c2.91-0.82,5.94,0.87,6.77,3.78l18.01,65.14
			c0.82,2.91-0.87,5.94-3.78,6.77l0,0c-2.91,0.82-5.94-0.87-6.77-3.78L0.21,198.97z"/>
		<path d="M84.03,198.97c0.82-2.91-0.87-5.94-3.78-6.77l0,0c-2.91-0.82-5.94,0.87-6.77,3.78l-18.01,65.14
			c-0.82,2.91,0.87,5.94,3.78,6.77l0,0c2.91,0.82,5.94-0.87,6.77-3.78L84.03,198.97z"/>
		<path d="M154.57,225.7c0,9.49-7.76,17.26-17.26,17.26c-9.49,0-17.26-7.57-17.26-17.07c0-9.49,7.7-17.45,17.19-17.45
			C146.74,208.44,154.57,216.2,154.57,225.7z"/>
		<g>
			<path d="M158.62,252.17c-0.24-1.38-1.04-2.52-2.12-3.25c-1.07-0.9-2.45-1.45-3.97-1.45h-30.71c-1.25,0-2.42,0.38-3.39,1.02
				c-1.48,0.63-2.62,1.98-2.92,3.68l-4.61,25.14h52.33L158.62,252.17z"/>
		</g>
		<path d="M95.19,198.97c-0.82-2.91,0.87-5.94,3.78-6.77l0,0c2.91-0.82,5.94,0.87,6.77,3.78l18.01,65.14
			c0.82,2.91-0.87,5.94-3.78,6.77l0,0c-2.91,0.82-5.94-0.87-6.77-3.78L95.19,198.97z"/>
		<path d="M179.01,198.97c0.82-2.91-0.87-5.94-3.78-6.77l0,0c-2.91-0.82-5.94,0.87-6.77,3.78l-18.01,65.14
			c-0.82,2.91,0.87,5.94,3.78,6.77l0,0c2.91,0.82,5.94-0.87,6.77-3.78L179.01,198.97z"/>
		<path d="M250.04,225.7c0,9.49-7.76,17.26-17.26,17.26s-17.26-7.57-17.26-17.07c0-9.49,7.7-17.45,17.19-17.45
			C242.21,208.44,250.04,216.2,250.04,225.7z"/>
		<g>
			<path d="M254.09,252.17c-0.24-1.38-1.04-2.52-2.12-3.25c-1.07-0.9-2.45-1.45-3.97-1.45h-30.71c-1.25,0-2.42,0.38-3.39,1.02
				c-1.48,0.63-2.62,1.98-2.92,3.68l-4.61,25.14h52.33L254.09,252.17z"/>
		</g>
		<path d="M190.66,198.97c-0.82-2.91,0.87-5.94,3.78-6.77l0,0c2.91-0.82,5.94,0.87,6.77,3.78l18.01,65.14
			c0.82,2.91-0.87,5.94-3.78,6.77l0,0c-2.91,0.82-5.94-0.87-6.77-3.78L190.66,198.97z"/>
		<path d="M274.48,198.97c0.82-2.91-0.87-5.94-3.78-6.77l0,0c-2.91-0.82-5.94,0.87-6.77,3.78l-18.01,65.14
			c-0.82,2.91,0.87,5.94,3.78,6.77l0,0c2.91,0.82,5.94-0.87,6.77-3.78L274.48,198.97z"/>
		<path d="M59.58,129.18c0,9.49-7.76,17.26-17.26,17.26s-17.26-7.57-17.26-17.07c0-9.49,7.7-17.45,17.19-17.45
			C51.75,111.92,59.58,119.68,59.58,129.18z"/>
		<g>
			<path d="M63.64,156.09c-0.24-1.38-1.04-2.52-2.12-3.25c-1.07-0.9-2.46-1.45-3.97-1.45H26.83c-1.25,0-2.42,0.38-3.39,1.02
				c-1.48,0.63-2.62,1.98-2.92,3.68l-4.61,25.14h52.33L63.64,156.09z"/>
		</g>
		<path d="M0.21,102.45c-0.82-2.91,0.87-5.94,3.78-6.77l0,0c2.91-0.82,5.94,0.87,6.77,3.78l18.01,65.14
			c0.82,2.91-0.87,5.94-3.78,6.77l0,0c-2.91,0.82-5.94-0.87-6.77-3.78L0.21,102.45z"/>
		<path d="M84.03,102.45c0.82-2.91-0.87-5.94-3.78-6.77l0,0c-2.91-0.82-5.94,0.87-6.77,3.78l-18.01,65.14
			c-0.82,2.91,0.87,5.94,3.78,6.77l0,0c2.91,0.82,5.94-0.87,6.77-3.78L84.03,102.45z"/>
		<path d="M154.57,129.18c0,9.49-7.76,17.26-17.26,17.26c-9.49,0-17.26-7.57-17.26-17.07c0-9.49,7.7-17.45,17.19-17.45
			C146.74,111.92,154.57,119.68,154.57,129.18z"/>
		<g>
			<path d="M158.62,156.09c-0.24-1.38-1.04-2.52-2.12-3.25c-1.07-0.9-2.45-1.45-3.97-1.45h-30.71c-1.25,0-2.42,0.38-3.39,1.02
				c-1.48,0.63-2.62,1.98-2.92,3.68l-4.61,25.14h52.33L158.62,156.09z"/>
		</g>
		<path d="M95.19,102.45c-0.82-2.91,0.87-5.94,3.78-6.77l0,0c2.91-0.82,5.94,0.87,6.77,3.78l18.01,65.14
			c0.82,2.91-0.87,5.94-3.78,6.77l0,0c-2.91,0.82-5.94-0.87-6.77-3.78L95.19,102.45z"/>
		<path d="M179.01,102.45c0.82-2.91-0.87-5.94-3.78-6.77l0,0c-2.91-0.82-5.94,0.87-6.77,3.78l-18.01,65.14
			c-0.82,2.91,0.87,5.94,3.78,6.77l0,0c2.91,0.82,5.94-0.87,6.77-3.78L179.01,102.45z"/>
		<path d="M250.04,129.18c0,9.49-7.76,17.26-17.26,17.26s-17.26-7.57-17.26-17.07c0-9.49,7.7-17.45,17.19-17.45
			C242.21,111.92,250.04,119.68,250.04,129.18z"/>
		<g>
			<path d="M254.09,156.09c-0.24-1.38-1.04-2.52-2.12-3.25c-1.07-0.9-2.45-1.45-3.97-1.45h-30.71c-1.25,0-2.42,0.38-3.39,1.02
				c-1.48,0.63-2.62,1.98-2.92,3.68l-4.61,25.14h52.33L254.09,156.09z"/>
		</g>
		<path d="M190.66,102.45c-0.82-2.91,0.87-5.94,3.78-6.77l0,0c2.91-0.82,5.94,0.87,6.77,3.78l18.01,65.14
			c0.82,2.91-0.87,5.94-3.78,6.77l0,0c-2.91,0.82-5.94-0.87-6.77-3.78L190.66,102.45z"/>
		<path d="M274.48,102.45c0.82-2.91-0.87-5.94-3.78-6.77l0,0c-2.91-0.82-5.94,0.87-6.77,3.78l-18.01,65.14
			c-0.82,2.91,0.87,5.94,3.78,6.77l0,0c2.91,0.82,5.94-0.87,6.77-3.78L274.48,102.45z"/>
		<path d="M59.58,33.7c0,9.49-7.76,17.26-17.26,17.26s-17.26-7.57-17.26-17.07c0-9.49,7.7-17.45,17.19-17.45
			C51.75,16.44,59.58,24.21,59.58,33.7z"/>
		<g>
			<path d="M63.64,60.62c-0.24-1.38-1.04-2.52-2.12-3.25c-1.07-0.9-2.46-1.45-3.97-1.45H26.83c-1.25,0-2.42,0.38-3.39,1.02
				c-1.48,0.63-2.62,1.98-2.92,3.68l-4.61,25.14h52.33L63.64,60.62z"/>
		</g>
		<path d="M0.21,6.97c-0.82-2.91,0.87-5.94,3.78-6.77l0,0c2.91-0.82,5.94,0.87,6.77,3.78l18.01,65.14c0.82,2.91-0.87,5.94-3.78,6.77
			l0,0c-2.91,0.82-5.94-0.87-6.77-3.78L0.21,6.97z"/>
		<path d="M84.03,6.97c0.82-2.91-0.87-5.94-3.78-6.77l0,0c-2.91-0.82-5.94,0.87-6.77,3.78L55.46,69.13
			c-0.82,2.91,0.87,5.94,3.78,6.77l0,0c2.91,0.82,5.94-0.87,6.77-3.78L84.03,6.97z"/>
		<path d="M154.57,33.7c0,9.49-7.76,17.26-17.26,17.26c-9.49,0-17.26-7.57-17.26-17.07c0-9.49,7.7-17.45,17.19-17.45
			C146.74,16.44,154.57,24.21,154.57,33.7z"/>
		<g>
			<path d="M158.62,60.62c-0.24-1.38-1.04-2.52-2.12-3.25c-1.07-0.9-2.45-1.45-3.97-1.45h-30.71c-1.25,0-2.42,0.38-3.39,1.02
				c-1.48,0.63-2.62,1.98-2.92,3.68l-4.61,25.14h52.33L158.62,60.62z"/>
		</g>
		<path d="M95.19,6.97c-0.82-2.91,0.87-5.94,3.78-6.77l0,0c2.91-0.82,5.94,0.87,6.77,3.78l18.01,65.14
			c0.82,2.91-0.87,5.94-3.78,6.77l0,0c-2.91,0.82-5.94-0.87-6.77-3.78L95.19,6.97z"/>
		<path d="M179.01,6.97c0.82-2.91-0.87-5.94-3.78-6.77l0,0c-2.91-0.82-5.94,0.87-6.77,3.78l-18.01,65.14
			c-0.82,2.91,0.87,5.94,3.78,6.77l0,0c2.91,0.82,5.94-0.87,6.77-3.78L179.01,6.97z"/>
		<path d="M250.04,33.7c0,9.49-7.76,17.26-17.26,17.26s-17.26-7.57-17.26-17.07c0-9.49,7.7-17.45,17.19-17.45
			C242.21,16.44,250.04,24.21,250.04,33.7z"/>
		<g>
			<path d="M254.09,60.62c-0.24-1.38-1.04-2.52-2.12-3.25c-1.07-0.9-2.45-1.45-3.97-1.45h-30.71c-1.25,0-2.42,0.38-3.39,1.02
				c-1.48,0.63-2.62,1.98-2.92,3.68l-4.61,25.14h52.33L254.09,60.62z"/>
		</g>
		<path d="M190.66,6.97c-0.82-2.91,0.87-5.94,3.78-6.77l0,0c2.91-0.82,5.94,0.87,6.77,3.78l18.01,65.14
			c0.82,2.91-0.87,5.94-3.78,6.77l0,0c-2.91,0.82-5.94-0.87-6.77-3.78L190.66,6.97z"/>
		<path d="M274.48,6.97c0.82-2.91-0.87-5.94-3.78-6.77l0,0c-2.91-0.82-5.94,0.87-6.77,3.78l-18.01,65.14
			c-0.82,2.91,0.87,5.94,3.78,6.77l0,0c2.91,0.82,5.94-0.87,6.77-3.78L274.48,6.97z"/>
	</g>
</g>
<g id="blue_dots">
	<circle id="dot" class="st0" cx="41.19" cy="33.5" r="4.5"/>
	<circle id="dot_1_" class="st0" cx="137.19" cy="33.5" r="4.5"/>
	<circle id="dot_2_" class="st0" cx="232.19" cy="33.5" r="4.5"/>
	<circle id="dot_3_" class="st0" cx="136.19" cy="129.5" r="4.5"/>
	<circle id="dot_4_" class="st0" cx="41.19" cy="129.5" r="4.5"/>
	<circle id="dot_5_" class="st0" cx="232.19" cy="129.5" r="4.5"/>
	<circle id="dot_6_" class="st0" cx="137.19" cy="226.5" r="4.5"/>
	<circle id="dot_7_" class="st0" cx="232.19" cy="226.5" r="4.5"/>
	<circle id="dot_8_" class="st0" cx="41.19" cy="225.5" r="4.5"/>
</g>
</svg>
