<?xml version="1.0" encoding="utf-8"?>
<!-- Generator: Adobe Illustrator 23.0.1, SVG Export Plug-In . SVG Version: 6.00 Build 0)  -->
<svg version="1.1" id="soccerboot" xmlns="http://www.w3.org/2000/svg" xmlns:xlink="http://www.w3.org/1999/xlink" x="0px" y="0px"
	 viewBox="0 0 339.99 155.03" style="enable-background:new 0 0 339.99 155.03;" xml:space="preserve">
<style type="text/css">
	.st0{fill:#0000FF;}

	#soccerboot:hover .st0 { fill: purple; }

</style>
<g id="boot_outline">
	<defs>
		
	</defs>
	<g id="steps_1_">
		<g>
			<g>
				<path d="M10.36,115.3c0.87,2.18,3.01,4.06,5.36,5.07c-1.82,0.96-3.09,2.78-3.09,5.02v7.06c0,3.33,2.7,6.11,6.03,6.2
					c1.12,0.03,2.37,0.06,3.74,0.1c3.33,0.09,6.03,1.07,6.03,2.19V143c0,3.43,2.88,6.19,6.36,5.99c3.21-0.19,5.64-3.01,5.64-6.22
					c0,0,0-0.59,0-1.64c0-1.05,2.75-1.81,6.15-1.72c1.57,0.04,3.16,0.09,4.76,0.13c3.39,0.09,6.15,0.91,6.15,1.82v1.64
					c0,3.43,2.88,6.19,6.36,5.99c3.21-0.19,5.64-3.01,5.64-6.22c0,0,0-0.44,0-1.25c0-0.81,2.7-1.39,6.03-1.3
					c7.47,0.2,14.61,0.39,20.73,0.54c25.52,0.65,57.2,2.61,90.44,3.53c3.33,0.09,6.03,1.18,6.03,2.45v2.12
					c0,3.01,2.14,5.7,5.12,6.13c3.71,0.53,6.89-2.34,6.89-5.94c0,0,0-1,0-2.22s2.71-2.17,6.07-2.13c1.85,0.02,3.7,0.03,5.55,0.04
					c3.36,0.01,6.07,0.97,6.07,2.15v2.15c0,3.43,2.88,6.19,6.36,5.99c3.22-0.18,5.64-3.01,5.64-6.22c0,0,0-0.77,0-2
					c0-1.23,2.71-2.27,6.05-2.35c11.09-0.3,22.07-0.85,32.8-1.74c3.33-0.27,6.02,0.32,6.02,1.37v1.74c0,3.01,2.14,5.7,5.12,6.13
					c3.71,0.53,6.89-2.34,6.89-5.94c0,0,0-1.16,0-2.6c0-1.43,2.69-2.93,6.02-3.41c4.51-0.64,8.95-1.36,13.3-2.17
					c3.29-0.61,5.96,0.25,5.96,2.01v3.2c0,3.43,2.88,6.19,6.36,5.99c3.21-0.19,5.64-3.01,5.64-6.22c0,0,0-1.89,0-4.44
					c0-2.55,2.55-5.28,5.67-6.14c3.13-0.87,5.64-3.92,5.64-6.68c0-1.92-1.28-3.1-3.12-3.41c1.9-1.38,3.22-3.54,3.2-5.67
					c-0.03-2.65-0.06-5.31-0.06-5.45c0-16.82-19.15-21.42-47.89-28.33l-3.8-0.92c-4.59-1.11-13.02-2.97-25.62-6.7
					c-3.2-0.95-6.81,0.75-8.08,3.83l-4.05,9.82c-0.93,2.31-3.58,3.4-5.88,2.45c-2.32-0.94-3.41-3.58-2.46-5.89l3.75-9.16
					c1.26-3.08-0.28-6.43-3.42-7.54c-0.54-0.19-1.09-0.38-1.62-0.58c-3.15-1.11-6.84,0.43-8.27,3.45l-4.68,9.93
					c-1.06,2.26-3.74,3.23-6.01,2.17c-2.26-1.05-3.23-3.73-2.16-5.99l4.31-9.24c1.4-3.03,0.01-6.43-3.1-7.64
					c-0.06-0.03-0.13-0.05-0.18-0.07c-3.11-1.21-6.93,0.12-8.57,3.03l-5.71,10.22c-1.32,2.13-4.09,2.81-6.22,1.5
					c-2.13-1.3-2.79-4.09-1.5-6.21l5.06-9.11c1.62-2.91,0.45-6.38-2.55-7.83c-0.3-0.14-0.59-0.28-0.88-0.42
					c-3-1.47-6.89-0.45-8.71,2.34l-6.91,10.56c-1.44,2.03-4.27,2.51-6.3,1.07c-2.03-1.45-2.51-4.26-1.06-6.29l6.27-9.64
					c1.83-2.8,0.94-6.39-1.89-8.15c-0.21-0.14-0.43-0.27-0.64-0.4c-2.82-1.77-6.71-1.2-8.77,1.43l-7.85,9.99
					c-1.57,1.95-4.4,2.26-6.36,0.71c-1.94-1.55-2.26-4.4-0.7-6.34l7.72-9.83c2.06-2.62,3.2-5.18,2.57-5.73
					c-0.38-0.33-0.76-0.66-1.14-1c-1.86-1.69-3.67-3.29-5.43-4.84c-4.86-3.63-14.45-6.08-25.88,0.37
					c-10.91,6.16-35.52,13.64-56.47,7.28C64.38,28.8,53.47,20.52,47.96,9.43c-2.87-5.71-5.11-9.12-9.55-9.4
					c-5.71-0.37-9.42,2.43-21.64,17.1c-2.48,2.98-4.81,6.12-7.07,9.93c-1.7,2.87-0.79,7.05,1.88,9.04
					c30.75,22.9,78.39,36.42,136.11,47.42c48.81,9.3,73.36,33.86,82.02,44.54c0.96,1.19,2.39,2.29,3.94,3.18
					c-1.81-0.15-3.28-0.34-3.76-0.49c-0.47-0.14-0.95-0.22-1.47-0.22c-0.49,0-0.95,0.07-1.4,0.2c-0.75,0.21-4.03,0.46-7.36,0.35
					c-9.08-0.3-18.1-0.78-27.09-1.3c0.37-0.82,0.18-1.93-0.82-3.17c-21.35-26.62-60.47-35.15-105.77-47.6
					C46.49,68.16,21.26,52.77,8.56,43.47c-2.69-1.95-5.47-1.64-6.11,0.9c-0.64,2.54,0.84,6.61,3.33,8.83
					C30.4,75.2,78.96,91.95,111.58,100.11c24.73,6.19,39.56,18,46.46,24.83c1.07,1.06,2.58,2.09,4.18,2.94
					c-1.31-0.09-2.65-0.17-3.95-0.26l-26.02-1.74c-5.04-0.32-9.97-0.62-14.84-0.9c0.4-0.82,0.2-1.94-0.87-3.15
					c-10.6-11.99-30.56-20.19-56.51-30.07c-20.76-7.91-41.58-20.81-55.01-32.3c-2.54-2.17-4.73-1.69-4.88,1.23
					C0.05,62.36,0,64.11,0,65.95c0,2.33,0.06,4.77,0.21,7.33C1.11,89.53,6.81,106.27,10.36,115.3z"/>
			</g>
		</g>
		<g>
		</g>
		<g>
		</g>
		<g>
		</g>
		<g>
		</g>
		<g>
		</g>
		<g>
		</g>
		<g>
		</g>
		<g>
		</g>
		<g>
		</g>
		<g>
		</g>
		<g>
		</g>
		<g>
		</g>
		<g>
		</g>
		<g>
		</g>
		<g>
		</g>
	</g>
</g>
<g id="blue_dots">
	<circle id="dot" class="st0" cx="145.99" cy="89.05" r="3"/>
	<circle id="dot_1_" class="st0" cx="169.99" cy="99.05" r="3"/>
	<circle id="dot_2_" class="st0" cx="195.99" cy="116.05" r="3"/>
	<circle id="dot_3_" class="st0" cx="108.99" cy="106.05" r="3"/>
	<circle id="dot_4_" class="st0" cx="128.99" cy="118.05" r="3"/>
</g>
</svg>
