<?xml version="1.0" encoding="utf-8"?>
<!-- Generator: Adobe Illustrator 23.0.1, SVG Export Plug-In . SVG Version: 6.00 Build 0)  -->
<svg version="1.1" id="whistle" xmlns="http://www.w3.org/2000/svg" xmlns:xlink="http://www.w3.org/1999/xlink" x="0px" y="0px"
	 viewBox="0 0 352.96 208.06" style="enable-background:new 0 0 352.96 208.06;" xml:space="preserve">
<style type="text/css">
	.st0{fill:#FF00FF;}

	#whistle:hover .st0 { fill: #000; }

</style>
<g id="whistle_outline">
	<g id="steps_1_">
		<g>
			<g>
				<path d="M104.54,1C38.56,1-13.15,61.52,2.97,129.58c8.73,36.89,37.64,65.92,74.42,75.1c62.27,15.53,118.55-24.26,129.62-80.12
					c0.65-3.3,1.04-6.14,1.09-6.29c0.02-0.09,0.05-0.17,0.08-0.28C223.75,54.9,325.8,50.26,348.19,50c0,0,1.35,0,2.57,0
					c1.21,0,2.2-2.73,2.2-6.09V7.15c0-3.4-2.75-6.15-6.15-6.15H191.96v25h-28V0l-59.41,1H104.54z"/>
			</g>
		</g>
		<g>
		</g>
		<g>
		</g>
		<g>
		</g>
		<g>
		</g>
		<g>
		</g>
		<g>
		</g>
		<g>
		</g>
		<g>
		</g>
		<g>
		</g>
		<g>
		</g>
		<g>
		</g>
		<g>
		</g>
		<g>
		</g>
		<g>
		</g>
		<g>
		</g>
	</g>
</g>
<ellipse id="purple_dot" class="st0" cx="177.96" cy="12" rx="7" ry="8"/>
</svg>
